<svg width="124" height="18" viewBox="0 0 124 18" fill="none" xmlns="http://www.w3.org/2000/svg">
<path d="M114.348 15.004C112.602 15.004 111.062 14.7033 109.728 14.102C108.408 13.486 107.388 12.6207 106.67 11.506C105.951 10.3767 105.592 9.07133 105.592 7.59V7.436C105.592 5.94 105.951 4.63467 106.67 3.52C107.388 2.39067 108.408 1.52533 109.728 0.924C111.062 0.308 112.602 0 114.348 0C116.122 0 117.67 0.308 118.99 0.924C120.31 1.52533 121.329 2.39067 122.048 3.52C122.766 4.63467 123.126 5.94 123.126 7.436V7.59C123.126 9.086 122.766 10.3913 122.048 11.506C121.329 12.6207 120.31 13.486 118.99 14.102C117.67 14.7033 116.122 15.004 114.348 15.004ZM114.348 11.374C117.56 11.374 119.166 10.1347 119.166 7.656V7.392C119.166 6.16 118.755 5.22867 117.934 4.598C117.127 3.95267 115.932 3.63 114.348 3.63C112.793 3.63 111.605 3.95267 110.784 4.598C109.962 5.24333 109.552 6.17467 109.552 7.392V7.656C109.552 8.87333 109.955 9.79733 110.762 10.428C111.568 11.0587 112.764 11.374 114.348 11.374Z" fill="white"/>
<path d="M88.4684 0.286133H92.3624V5.76413H99.4684V0.286133H103.362V14.7181H99.4684V9.24013H92.3624V14.7181H88.4684V0.286133Z" fill="white"/>
<path d="M68.3123 11.2421H70.1383C70.8716 10.0835 71.2603 8.60947 71.3043 6.82013L71.4363 0.286133H84.4383V11.2421H86.6603V17.6441H82.7663V14.7181H72.2063V17.6441H68.3123V11.2421ZM80.5443 11.2421V3.78413H74.9563L74.8903 6.84213C74.8463 8.6608 74.5016 10.1275 73.8563 11.2421H80.5443Z" fill="white"/>
<path d="M59.4706 15.004C57.7253 15.004 56.1853 14.7033 54.8506 14.102C53.5306 13.486 52.5113 12.6207 51.7926 11.506C51.0739 10.3767 50.7146 9.07133 50.7146 7.59V7.436C50.7146 5.94 51.0739 4.63467 51.7926 3.52C52.5113 2.39067 53.5306 1.52533 54.8506 0.924C56.1853 0.308 57.7253 0 59.4706 0C61.2453 0 62.7926 0.308 64.1126 0.924C65.4326 1.52533 66.4519 2.39067 67.1706 3.52C67.8893 4.63467 68.2486 5.94 68.2486 7.436V7.59C68.2486 9.086 67.8893 10.3913 67.1706 11.506C66.4519 12.6207 65.4326 13.486 64.1126 14.102C62.7926 14.7033 61.2453 15.004 59.4706 15.004ZM59.4706 11.374C62.6826 11.374 64.2886 10.1347 64.2886 7.656V7.392C64.2886 6.16 63.8779 5.22867 63.0566 4.598C62.2499 3.95267 61.0546 3.63 59.4706 3.63C57.9159 3.63 56.7279 3.95267 55.9066 4.598C55.0853 5.24333 54.6746 6.17467 54.6746 7.392V7.656C54.6746 8.87333 55.0779 9.79733 55.8846 10.428C56.6913 11.0587 57.8866 11.374 59.4706 11.374Z" fill="white"/>
<path d="M39.1127 0.286133H51.0367V3.76213H43.0067V14.7181H39.1127V0.286133Z" fill="white"/>
<path d="M17.0754 0.286133H20.9694V4.99413H25.5234C27.3568 4.99413 28.7574 5.39747 29.7254 6.20413C30.7081 7.0108 31.1994 8.16947 31.1994 9.68013V9.94413C31.1994 11.4841 30.7081 12.6648 29.7254 13.4861C28.7574 14.3075 27.3568 14.7181 25.5234 14.7181H17.0754V0.286133ZM25.4354 11.3301C26.6381 11.3301 27.2394 10.8755 27.2394 9.96613V9.70213C27.2394 9.26213 27.0854 8.93213 26.7774 8.71213C26.4694 8.47747 26.0221 8.36013 25.4354 8.36013H20.9694V11.3301H25.4354ZM32.2994 0.286133H36.1934V14.7181H32.2994V0.286133Z" fill="white"/>
<path d="M0 0.286133H8.756C10.5013 0.286133 11.8507 0.623467 12.804 1.29813C13.7573 1.9728 14.234 2.93347 14.234 4.18013V4.40013C14.234 5.66147 13.728 6.64413 12.716 7.34813C13.3613 7.68547 13.8527 8.11813 14.19 8.64613C14.5273 9.17413 14.696 9.79013 14.696 10.4941V10.7141C14.696 11.9608 14.2047 12.9435 13.222 13.6621C12.254 14.3661 10.912 14.7181 9.196 14.7181H0V0.286133ZM9.108 11.3741C10.1787 11.3741 10.714 11.0075 10.714 10.2741V10.0541C10.714 9.33547 10.1787 8.97613 9.108 8.97613H3.894V11.3741H9.108ZM8.756 5.91813C9.29867 5.91813 9.69467 5.83747 9.944 5.67613C10.208 5.50013 10.34 5.23613 10.34 4.88413V4.66413C10.34 3.9748 9.812 3.63013 8.756 3.63013H3.894V5.91813H8.756Z" fill="white"/>
</svg>
