<svg width="167" height="23" viewBox="0 0 167 23" fill="none" xmlns="http://www.w3.org/2000/svg">
<path d="M152.45 16.4999L159.71 12.4519C160.444 12.0413 160.994 11.7039 161.36 11.4399C161.742 11.1613 161.998 10.9119 162.13 10.6919C162.277 10.4573 162.35 10.1933 162.35 9.89993V9.70193C162.35 9.17393 162.094 8.77059 161.58 8.49193C161.082 8.19859 160.356 8.05193 159.402 8.05193C158.376 8.05193 157.584 8.23526 157.026 8.60192C156.484 8.95393 156.212 9.47459 156.212 10.1639V10.6039H152.45V10.1419C152.45 8.36726 153.03 7.03259 154.188 6.13792C155.347 5.22859 157.063 4.77393 159.336 4.77393C161.522 4.77393 163.223 5.19193 164.44 6.02793C165.658 6.84926 166.266 8.00059 166.266 9.48193V9.70193C166.266 10.6993 165.922 11.6013 165.232 12.4079C164.558 13.1999 163.392 14.0579 161.734 14.9819L159.27 16.3459H166.53V19.4919H152.45V16.4999Z" fill="white"/>
<path d="M141.683 8.53606H136.337V5.06006H150.923V8.53606H145.577V19.4921H141.683V8.53606Z" fill="white"/>
<path d="M111.949 5.06006H120.705C122.451 5.06006 123.8 5.39739 124.753 6.07206C125.707 6.74673 126.183 7.70739 126.183 8.95406V9.17406C126.183 10.4354 125.677 11.4181 124.665 12.1221C125.311 12.4594 125.802 12.8921 126.139 13.4201C126.477 13.9481 126.645 14.5641 126.645 15.2681V15.4881C126.645 16.7347 126.154 17.7174 125.171 18.4361C124.203 19.1401 122.861 19.4921 121.145 19.4921H111.949V5.06006ZM121.057 16.1481C122.128 16.1481 122.663 15.7814 122.663 15.0481V14.8281C122.663 14.1094 122.128 13.7501 121.057 13.7501H115.843V16.1481H121.057ZM120.705 10.6921C121.248 10.6921 121.644 10.6114 121.893 10.4501C122.157 10.2741 122.289 10.0101 122.289 9.65806V9.43806C122.289 8.74873 121.761 8.40406 120.705 8.40406H115.843V10.6921H120.705Z" fill="white"/>
<path d="M85.5554 5.06H89.4054V14.124L96.5554 5.06H100.449V19.492H96.5994V10.428L89.4494 19.492H85.5554V5.06ZM93.0134 4.004C89.7428 4.004 88.1074 2.73533 88.1074 0.198V0H91.2314V0.198C91.2314 0.520667 91.3781 0.77 91.6714 0.945999C91.9794 1.10733 92.4268 1.188 93.0134 1.188C94.0694 1.188 94.5974 0.858 94.5974 0.198V0H97.9194V0.198C97.9194 1.474 97.5088 2.42733 96.6874 3.058C95.8808 3.68867 94.6561 4.004 93.0134 4.004Z" fill="white"/>
<path d="M69.877 5.06006H82.989V8.42606H73.771V10.6041H82.549V13.9261H73.771V16.1261H82.989V19.4921H69.877V5.06006Z" fill="white"/>
<path d="M59.6687 19.7779C56.9114 19.7779 54.8214 19.2499 53.3987 18.1939C51.9907 17.1233 51.2867 15.5539 51.2867 13.4859V13.3319H55.2027V13.4859C55.2027 14.4686 55.5621 15.1873 56.2807 15.6419C57.0141 16.0819 58.1874 16.3019 59.8007 16.3019C61.0034 16.3019 61.9201 16.1919 62.5507 15.9719C63.1961 15.7373 63.5187 15.3999 63.5187 14.9599V14.7399C63.5187 14.4759 63.4234 14.2779 63.2327 14.1459C63.0567 13.9993 62.7341 13.9039 62.2647 13.8599C61.7954 13.8013 61.0987 13.7719 60.1747 13.7719H57.2047V10.7359H60.0647C60.8714 10.7359 61.4947 10.7066 61.9347 10.6479C62.3894 10.5746 62.7047 10.4646 62.8807 10.3179C63.0714 10.1713 63.1667 9.96593 63.1667 9.70193V9.48193C63.1667 8.66059 61.9494 8.24993 59.5147 8.24993C58.0041 8.24993 56.9187 8.46993 56.2587 8.90993C55.6134 9.33526 55.2907 10.0466 55.2907 11.0439V11.1979H51.3747V11.0439C51.3747 9.00526 52.0714 7.45059 53.4647 6.37993C54.8727 5.30926 56.9187 4.77393 59.6027 4.77393C61.1574 4.77393 62.4994 4.94993 63.6287 5.30193C64.7581 5.65393 65.6234 6.15993 66.2247 6.81993C66.8261 7.46526 67.1267 8.24259 67.1267 9.15193V9.39393C67.1267 10.5819 66.5547 11.4986 65.4107 12.1439C66.0854 12.4666 66.5987 12.8699 66.9507 13.3539C67.3027 13.8379 67.4787 14.3953 67.4787 15.0259V15.2679C67.4787 16.6906 66.7894 17.7979 65.4107 18.5899C64.0321 19.3819 62.1181 19.7779 59.6687 19.7779Z" fill="white"/>
<path d="M37.598 16.0161H41.008C41.2866 16.0161 41.514 15.9867 41.69 15.9281L35.574 5.65406V5.06006H39.6L43.912 12.6941L47.652 5.06006H51.656V5.65406L46.244 15.9061C45.54 17.2407 44.8066 18.1721 44.044 18.7001C43.296 19.2281 42.3206 19.4921 41.118 19.4921H37.598V16.0161Z" fill="white"/>
<path d="M20.1561 5.06006H29.4181C31.1928 5.06006 32.5788 5.48539 33.5761 6.33606C34.5881 7.17206 35.0941 8.33073 35.0941 9.81206V10.0321C35.0941 11.5134 34.5881 12.6794 33.5761 13.5301C32.5788 14.3807 31.1928 14.8061 29.4181 14.8061H24.0501V19.4921H20.1561V5.06006ZM29.3301 11.4181C29.9168 11.4181 30.3641 11.3007 30.6721 11.0661C30.9801 10.8314 31.1341 10.4867 31.1341 10.0321V9.81206C31.1341 9.37206 30.9801 9.03473 30.6721 8.80006C30.3641 8.56539 29.9168 8.44806 29.3301 8.44806H24.0501V11.4181H29.3301Z" fill="white"/>
<path d="M0 16.0161H1.826C2.55933 14.8574 2.948 13.3834 2.992 11.5941L3.124 5.06006H16.126V16.0161H18.348V22.4181H14.454V19.4921H3.894V22.4181H0V16.0161ZM12.232 16.0161V8.55806H6.644L6.578 11.6161C6.534 13.4347 6.18933 14.9014 5.544 16.0161H12.232Z" fill="white"/>
</svg>
