<svg width="173" height="15" viewBox="0 0 173 15" fill="none" xmlns="http://www.w3.org/2000/svg">
<path d="M164.026 15.004C162.28 15.004 160.74 14.7033 159.406 14.102C158.086 13.486 157.066 12.6207 156.348 11.506C155.629 10.3767 155.27 9.07133 155.27 7.59V7.436C155.27 5.94 155.629 4.63467 156.348 3.52C157.066 2.39067 158.086 1.52533 159.406 0.924C160.74 0.308 162.28 0 164.026 0C165.8 0 167.348 0.308 168.668 0.924C169.988 1.52533 171.007 2.39067 171.726 3.52C172.444 4.63467 172.804 5.94 172.804 7.436V7.59C172.804 9.086 172.444 10.3913 171.726 11.506C171.007 12.6207 169.988 13.486 168.668 14.102C167.348 14.7033 165.8 15.004 164.026 15.004ZM164.026 11.374C167.238 11.374 168.844 10.1347 168.844 7.656V7.392C168.844 6.16 168.433 5.22867 167.612 4.598C166.805 3.95267 165.61 3.63 164.026 3.63C162.471 3.63 161.283 3.95267 160.462 4.598C159.64 5.24333 159.23 6.17467 159.23 7.392V7.656C159.23 8.87333 159.633 9.79733 160.44 10.428C161.246 11.0587 162.442 11.374 164.026 11.374Z" fill="white"/>
<path d="M138.146 0.286133H142.04V5.76413H149.146V0.286133H153.04V14.7181H149.146V9.24013H142.04V14.7181H138.146V0.286133Z" fill="white"/>
<path d="M135.246 14.7181H131.352V9.72413C129.841 9.92947 128.441 10.0321 127.15 10.0321C124.906 10.0321 123.212 9.5628 122.068 8.62413C120.939 7.68547 120.374 6.2848 120.374 4.42213V0.286133H124.268V4.07013C124.268 4.9208 124.547 5.54413 125.104 5.94013C125.661 6.32147 126.541 6.51213 127.744 6.51213C128.771 6.51213 129.973 6.45347 131.352 6.33613V0.286133H135.246V14.7181Z" fill="white"/>
<path d="M102.987 0.286133H106.837V9.35013L113.987 0.286133H117.881V14.7181H114.031V5.65413L106.881 14.7181H102.987V0.286133Z" fill="white"/>
<path d="M84.1779 11.2421H84.7059C85.5272 11.2421 86.1065 11.0221 86.4439 10.5821C86.7959 10.1421 86.9865 9.37947 87.0159 8.29413L87.1699 0.286133H100.084V14.7181H96.1899V3.78413H90.6899L90.5799 8.60213C90.5505 10.6261 90.1032 12.1515 89.2379 13.1781C88.3872 14.2048 87.1259 14.7181 85.4539 14.7181H84.1779V11.2421Z" fill="white"/>
<path d="M67.9344 0.286133H71.7845V9.35013L78.9345 0.286133H82.8285V14.7181H78.9785V5.65413L71.8285 14.7181H67.9344V0.286133Z" fill="white"/>
<path d="M50.838 0.286133H60.1C61.8747 0.286133 63.2607 0.711466 64.258 1.56213C65.27 2.39813 65.776 3.5568 65.776 5.03813V5.25813C65.776 6.73947 65.27 7.90547 64.258 8.75613C63.2607 9.6068 61.8747 10.0321 60.1 10.0321H54.732V14.7181H50.838V0.286133ZM60.012 6.64413C60.5987 6.64413 61.046 6.5268 61.354 6.29213C61.662 6.05747 61.816 5.7128 61.816 5.25813V5.03813C61.816 4.59813 61.662 4.2608 61.354 4.02613C61.046 3.79147 60.5987 3.67413 60.012 3.67413H54.732V6.64413H60.012Z" fill="white"/>
<path d="M33.4838 0.286133H47.9378V14.7181H44.0438V3.76213H37.3778V14.7181H33.4838V0.286133Z" fill="white"/>
<path d="M17.8054 0.286133H30.9174V3.65213H21.6994V5.83013H30.4774V9.15213H21.6994V11.3521H30.9174V14.7181H17.8054V0.286133Z" fill="white"/>
<path d="M0 0.286133H3.894V5.76413H11V0.286133H14.894V14.7181H11V9.24013H3.894V14.7181H0V0.286133Z" fill="white"/>
</svg>
