<svg width="166" height="18" viewBox="0 0 166 18" fill="none" xmlns="http://www.w3.org/2000/svg">
<path d="M152.729 0.286133H165.841V3.65213H156.623V5.83013H165.401V9.15213H156.623V11.3521H165.841V14.7181H152.729V0.286133Z" fill="white"/>
<path d="M141.83 3.76213H136.484V0.286133H151.07V3.76213H145.724V14.7181H141.83V3.76213Z" fill="white"/>
<path d="M119.933 0.286133H123.783V9.35013L130.933 0.286133H134.827V14.7181H130.977V5.65413L123.827 14.7181H119.933V0.286133Z" fill="white"/>
<path d="M99.7765 11.2421H101.602C102.336 10.0835 102.724 8.60947 102.768 6.82013L102.9 0.286133H115.902V11.2421H118.124V17.6441H114.23V14.7181H103.67V17.6441H99.7765V11.2421ZM112.008 11.2421V3.78413H106.42L106.354 6.84213C106.31 8.6608 105.966 10.1275 105.32 11.2421H112.008Z" fill="white"/>
<path d="M90.935 15.004C89.1896 15.004 87.6496 14.7033 86.315 14.102C84.995 13.486 83.9756 12.6207 83.257 11.506C82.5383 10.3767 82.179 9.07133 82.179 7.59V7.436C82.179 5.94 82.5383 4.63467 83.257 3.52C83.9756 2.39067 84.995 1.52533 86.315 0.924C87.6496 0.308 89.1896 0 90.935 0C92.7096 0 94.257 0.308 95.577 0.924C96.897 1.52533 97.9163 2.39067 98.635 3.52C99.3536 4.63467 99.713 5.94 99.713 7.436V7.59C99.713 9.086 99.3536 10.3913 98.635 11.506C97.9163 12.6207 96.897 13.486 95.577 14.102C94.257 14.7033 92.7096 15.004 90.935 15.004ZM90.935 11.374C94.147 11.374 95.753 10.1347 95.753 7.656V7.392C95.753 6.16 95.3423 5.22867 94.521 4.598C93.7143 3.95267 92.519 3.63 90.935 3.63C89.3803 3.63 88.1923 3.95267 87.371 4.598C86.5496 5.24333 86.139 6.17467 86.139 7.392V7.656C86.139 8.87333 86.5423 9.79733 87.349 10.428C88.1556 11.0587 89.351 11.374 90.935 11.374Z" fill="white"/>
<path d="M65.8075 0.286133H74.5635C76.3088 0.286133 77.6582 0.623466 78.6115 1.29813C79.5648 1.9728 80.0415 2.93347 80.0415 4.18013V4.40013C80.0415 5.66147 79.5355 6.64413 78.5235 7.34813C79.1688 7.68547 79.6602 8.11813 79.9975 8.64613C80.3348 9.17413 80.5035 9.79013 80.5035 10.4941V10.7141C80.5035 11.9608 80.0122 12.9435 79.0295 13.6621C78.0615 14.3661 76.7195 14.7181 75.0035 14.7181H65.8075V0.286133ZM74.9155 11.3741C75.9862 11.3741 76.5215 11.0075 76.5215 10.2741V10.0541C76.5215 9.33547 75.9862 8.97613 74.9155 8.97613H69.7015V11.3741H74.9155ZM74.5635 5.91813C75.1062 5.91813 75.5022 5.83747 75.7515 5.67613C76.0155 5.50013 76.1475 5.23613 76.1475 4.88413V4.66413C76.1475 3.9748 75.6195 3.63013 74.5635 3.63013H69.7015V5.91813H74.5635Z" fill="white"/>
<path d="M50.129 0.286133H63.241V3.65213H54.023V5.83013H62.801V9.15213H54.023V11.3521H63.241V14.7181H50.129V0.286133Z" fill="white"/>
<path d="M33.0326 0.286133H42.2946C44.0693 0.286133 45.4553 0.711466 46.4526 1.56213C47.4646 2.39813 47.9706 3.5568 47.9706 5.03813V5.25813C47.9706 6.73947 47.4646 7.90547 46.4526 8.75613C45.4553 9.6068 44.0693 10.0321 42.2946 10.0321H36.9266V14.7181H33.0326V0.286133ZM42.2066 6.64413C42.7933 6.64413 43.2406 6.5268 43.5486 6.29213C43.8566 6.05747 44.0106 5.7128 44.0106 5.25813V5.03813C44.0106 4.59813 43.8566 4.2608 43.5486 4.02613C43.2406 3.79147 42.7933 3.67413 42.2066 3.67413H36.9266V6.64413H42.2066Z" fill="white"/>
<path d="M17.3542 0.286133H30.4662V3.65213H21.2482V5.83013H30.0262V9.15213H21.2482V11.3521H30.4662V14.7181H17.3542V0.286133Z" fill="white"/>
<path d="M0 0.286133H14.454V14.7181H10.56V3.76213H3.894V14.7181H0V0.286133Z" fill="white"/>
</svg>
